<?xml version="1.0" encoding="UTF-8"?>
<svg width="31px" height="30px" viewBox="0 0 31 30" version="1.1" xmlns="http://www.w3.org/2000/svg" xmlns:xlink="http://www.w3.org/1999/xlink">
    <!-- Generator: Sketch 43.1 (39012) - http://www.bohemiancoding.com/sketch -->
    <title>individual</title>
    <desc>Created with Sketch.</desc>
    <defs></defs>
    <g id="Page-1" stroke="none" stroke-width="1" fill="none" fill-rule="evenodd">
        <g id="О-компании" transform="translate(-1057.000000, -1683.000000)" fill-rule="nonzero" fill="#F0CEA0">
            <g id="individual" transform="translate(1057.000000, 1683.000000)">
                <path d="M25.2244412,18.7261256 C24.9431072,18.7261256 24.7148331,18.4979219 24.7148331,18.2160233 L24.7148331,18.0219626 C24.7148331,17.4257731 23.8650001,16.8409648 22.9991325,16.8409648 L20.9158028,16.8409648 C20.6344687,16.8409648 20.4064861,16.6130529 20.4064861,16.3311543 C20.4064861,16.0492556 20.6344687,15.8210519 20.9158028,15.8210519 L22.9991325,15.8210519 C24.2926862,15.8210519 25.7337579,16.725112 25.7337579,18.0219626 L25.7337579,18.2160233 C25.7337579,18.4979219 25.5057753,18.7261256 25.2244412,18.7261256 L25.2244412,18.7261256 Z" id="Shape"></path>
                <path d="M23.1868829,12.5059703 C23.1728891,12.5059703 23.1588953,12.5056785 23.1449015,12.5045111 C22.8641505,12.4811655 22.6554094,12.2351608 22.6787324,11.9544294 L22.9335365,8.84157942 C22.9314957,7.08452782 21.5740953,5.62104775 19.905624,5.62104775 L17.2963599,5.62104775 C15.627597,5.62104775 14.2701966,7.08452782 14.2701966,8.88330978 L14.52296,11.9544294 C14.546283,12.2351608 14.3375419,12.4811655 14.0567909,12.5045111 C13.7780806,12.527565 13.5308565,12.3189133 13.5075335,12.0378901 L13.2530209,8.92504014 C13.2512717,6.52218965 15.0658035,4.60113486 17.2963599,4.60113486 L19.9053324,4.60113486 C22.1361804,4.60113486 23.9507122,6.52218965 23.9507122,8.88330978 L23.6941588,12.0378901 C23.6722936,12.3043223 23.4495585,12.5059703 23.1868829,12.5059703 L23.1868829,12.5059703 Z" id="Shape"></path>
                <path d="M18.600992,17.3510671 C17.9969255,17.3510671 17.3881943,17.2538909 16.8403946,17.0697521 C16.5736374,16.9801632 16.4299093,16.6906772 16.519703,16.4236614 C16.6094966,16.1569374 16.8981191,16.0139453 17.1645848,16.1023669 C17.60918,16.2517791 18.1056691,16.3311543 18.6007004,16.3311543 C19.755482,16.3311543 20.8239683,15.9126835 21.3889688,15.2388699 C22.1592119,14.3196351 22.6766917,13.0076099 22.6766917,11.974565 L22.6766917,9.91927282 C22.6766917,9.65138151 22.6218825,9.47249552 22.5140135,9.38903488 C22.1300581,9.08962694 20.909972,9.39983222 19.8336142,9.67326807 C18.8496738,9.92335827 17.8327896,10.1822031 16.9112384,10.1822031 C15.7646198,10.1822031 14.9926275,9.76927702 14.5305399,9.48533562 C14.5270415,9.59943748 14.5250008,9.74155412 14.5250008,9.91927282 L14.5250008,11.974565 C14.5250008,12.7187075 14.8019617,13.6446541 15.26609,14.4512462 C15.4066113,14.6955 15.3226484,15.0071643 15.0789227,15.1475301 C14.8349055,15.2884794 14.523543,15.2047269 14.3830218,14.9601812 C13.8256013,13.9910451 13.5057843,12.9028463 13.5057843,11.974565 L13.5057843,9.91927282 C13.5057843,9.05198211 13.5253173,8.55063434 13.9285142,8.32797523 C14.2879804,8.12632728 14.6282051,8.3428581 14.9279061,8.53108234 C15.3261468,8.78263171 15.9281726,9.16229024 16.9112384,9.16229024 C17.705096,9.16229024 18.6595911,8.91920373 19.5826,8.68458 C21.0743994,8.30550506 22.3615392,7.97749875 23.1396538,8.58361012 C23.5087408,8.87076155 23.6956166,9.32016515 23.6956166,9.91927282 L23.6956166,11.974565 C23.6956166,13.2492372 23.0967977,14.7874234 22.1694157,15.8942988 C21.4050033,16.8065299 20.0706344,17.3510671 18.600992,17.3510671 L18.600992,17.3510671 Z" id="Shape"></path>
                <path d="M23.2504382,23.6681069 C23.0174994,23.6681069 22.8070091,23.5067301 22.7539492,23.2697718 C22.6924347,22.9948769 22.8653167,22.7220246 23.1399453,22.6607423 L29.1864412,21.3055276 C29.4109253,21.26584 29.5864311,21.1540727 29.7036294,20.9868595 C29.8208276,20.8196463 29.866016,20.616831 29.8307399,20.4154749 C29.7840938,20.1481672 29.596635,19.9234654 29.342414,19.8289155 C29.0782806,19.7311557 28.9435901,19.437876 29.0415469,19.1734866 C29.1395036,18.909389 29.4336653,18.7734005 29.6960494,18.8726195 C30.2890375,19.0923604 30.7254697,19.6161783 30.8345048,20.2392153 C30.9170101,20.7090463 30.8114734,21.1823793 30.5377193,21.5725434 C30.2642567,21.9629994 29.8549375,22.2230114 29.3855616,22.3055967 L23.3623888,23.6558504 C23.3250719,23.6640214 23.2874636,23.6681069 23.2504382,23.6681069 Z" id="Shape"></path>
                <path d="M16.3573164,26.5308666 L12.4868594,26.5308666 C12.449834,26.5308666 12.4128087,26.527073 12.3763665,26.5189019 L7.79105855,25.4989891 C7.5164299,25.4377068 7.34296483,25.1651464 7.40418775,24.8905433 C7.46511923,24.6156482 7.73683247,24.4440578 8.01175271,24.5030055 L12.5428346,25.5109537 L16.3573164,25.5109537 C18.3456048,25.5109537 20.2959932,24.8260509 21.8490156,23.5826034 C21.8627179,23.5715143 21.8770032,23.5615924 21.8915801,23.5522541 L29.4327907,18.6984027 C29.4572798,18.6823525 29.4829352,18.6689288 29.5094651,18.6575478 C29.6975071,18.5778808 29.8429845,18.4293441 29.919659,18.2402444 C29.9963334,18.050561 29.9942927,17.8422011 29.9147028,17.6545605 C29.7499839,17.2658555 29.3004325,17.0840513 28.9126871,17.2489299 L21.3426143,20.372869 C21.2810998,20.3982575 21.2149206,20.4110976 21.14845,20.4110976 L11.4679344,20.4110976 C11.2842655,20.4110976 11.114882,20.3124622 11.0245053,20.1525445 C10.9341285,19.992335 10.9367523,19.7959398 11.0312107,19.6386485 L12.5597438,17.0887204 C12.6515782,16.9355146 12.8174633,16.8412566 12.9964676,16.8412566 L15.0346089,16.8412566 C15.9823986,16.8412566 16.7812124,16.1904967 17.0080289,15.3112414 L11.6346941,15.3112414 L4.6844308,20.4134321 C4.45703125,20.5800617 4.13896339,20.5298685 3.97220372,20.3037076 C3.80602716,20.0766712 3.85500553,19.7574195 4.08182197,19.5904981 L11.1667758,14.3899639 C11.2539456,14.3257633 11.3594823,14.2913285 11.4679344,14.2913285 L17.5817755,14.2913285 C17.8631095,14.2913285 18.0913837,14.5195322 18.0913837,14.8014308 C18.0913837,16.4887374 16.7199895,17.8614613 15.0343174,17.8614613 L13.2850901,17.8614613 L12.3679119,19.3914765 L21.0475779,19.3914765 L28.519694,16.3081004 C29.4202545,15.92494 30.4689164,16.3504144 30.8528717,17.2562254 C31.0388729,17.6951235 31.043246,18.1801294 30.8645333,18.6225293 C30.6919428,19.0503382 30.3683358,19.3879747 29.9508535,19.5782416 L22.4650351,24.3961992 C20.7350493,25.7727168 18.5674651,26.5308666 16.3573164,26.5308666 L16.3573164,26.5308666 Z" id="Shape"></path>
                <path d="M5.51268993,29.416972 C5.48557692,29.416972 5.45817232,29.4149293 5.43105932,29.410552 C5.297535,29.3886654 5.17829595,29.3148348 5.09928924,29.2054021 L0.09649906,22.2586136 C0.0172007541,22.1491808 -0.0151599702,22.0120252 0.00670537518,21.8786632 C0.0282791566,21.7453012 0.102038299,21.6259466 0.211656545,21.5465714 L3.51769613,19.1609383 C3.74655343,18.9981024 4.06462129,19.0482955 4.22904858,19.2764992 L9.23183876,26.2227041 C9.39655773,26.4511996 9.34495554,26.7698677 9.11668135,26.9347463 L5.81064169,29.320963 C5.72347184,29.3837045 5.61880972,29.416972 5.51268993,29.416972 Z M1.22096068,22.0759339 L5.62813893,28.1948275 L8.10766866,26.4053837 L3.70049041,20.2864902 L1.22096068,22.0759339 Z" id="Shape"></path>
                <path d="M6.88233497,26.0210561 C6.88233497,26.5842697 6.42607812,27.040969 5.86341003,27.040969 C5.30074194,27.040969 4.84448509,26.5842697 4.84448509,26.0210561 C4.84448509,25.4575506 5.30074194,25.0008514 5.86341003,25.0008514 C6.42607812,25.0008514 6.88233497,25.4575506 6.88233497,26.0210561 Z" id="Shape"></path>
                <path d="M18.600992,3.07111962 C18.3193663,3.07111962 18.0913837,2.84320778 18.0913837,2.56130907 L18.0913837,0.521191491 C18.0913837,0.239292863 18.3193663,0.0113810207 18.600992,0.0113810207 C18.882326,0.0113810207 19.1103087,0.239292863 19.1103087,0.521191491 L19.1103087,2.56130907 C19.1103087,2.84320778 18.882326,3.07111962 18.600992,3.07111962 Z" id="Shape"></path>
                <path d="M20.6388418,3.07111962 C20.5085243,3.07111962 20.3782069,3.02151009 20.2787925,2.92170749 C20.0796721,2.72268583 20.0796721,2.39993232 20.2787925,2.20061886 L22.0618382,0.415552484 C22.2609586,0.216530896 22.5833995,0.216530896 22.7822283,0.415552484 C22.9813487,0.614865948 22.9813487,0.937619455 22.7822283,1.13693292 L20.9991826,2.92170749 C20.8994767,3.02151009 20.7694507,3.07111962 20.6388418,3.07111962 L20.6388418,3.07111962 Z" id="Shape"></path>
                <path d="M16.5628506,3.07111962 C16.4325331,3.07111962 16.3022157,3.02151009 16.2028012,2.92170749 L14.6742682,1.39169225 C14.4751478,1.19267067 14.4751478,0.869917084 14.6742682,0.67060362 C14.873097,0.471582032 15.1955378,0.471582032 15.3946582,0.67060362 L16.9231914,2.20061886 C17.1220202,2.39993232 17.1220202,2.72268583 16.9231914,2.92170749 C16.8234854,3.02151009 16.693168,3.07111962 16.5628506,3.07111962 Z" id="Shape"></path>
            </g>
        </g>
    </g>
</svg>