<?xml version="1.0" encoding="UTF-8"?>
<svg width="21px" height="30px" viewBox="0 0 21 30" version="1.1" xmlns="http://www.w3.org/2000/svg" xmlns:xlink="http://www.w3.org/1999/xlink">
    <!-- Generator: Sketch 43.1 (39012) - http://www.bohemiancoding.com/sketch -->
    <title>001-placeholder</title>
    <desc>Created with Sketch.</desc>
    <defs></defs>
    <g id="Page-1" stroke="none" stroke-width="1" fill="none" fill-rule="evenodd">
        <g id="контакты" transform="translate(-197.000000, -1289.000000)" fill-rule="nonzero" fill="#F0CEA0">
            <g id="001-placeholder" transform="translate(197.000000, 1289.000000)">
                <path d="M10.403054,0 C4.66681001,0 0,4.73132813 0,10.546875 C0,12.5117578 0.53685538,14.4292969 1.55288699,16.0928906 L9.81088903,29.5845117 C9.96907324,29.8429688 10.2477595,30 10.547483,30 L10.5543606,30 C10.8566849,29.9975977 11.1359491,29.8357031 11.2912436,29.5727344 L19.3387572,15.9503906 C20.2987279,14.3219531 20.806108,12.453457 20.806108,10.546875 C20.806108,4.73132813 16.1392979,0 10.403054,0 Z M17.8508315,15.0479297 L10.5343636,27.4327734 L3.02653738,15.1667578 C2.18082688,13.7820703 1.72228338,12.1845703 1.72228338,10.546875 C1.72228338,5.70058594 5.62285067,1.74609375 10.403054,1.74609375 C15.1832573,1.74609375 19.0780451,5.70058594 19.0780451,10.546875 C19.0780451,12.1359961 18.6497282,13.6926562 17.8508315,15.0479297 Z" id="Shape"></path>
                <path d="M10.403054,5.2734375 C7.534932,5.2734375 5.20152699,7.63910156 5.20152699,10.546875 C5.20152699,13.4360742 7.49696085,15.8203125 10.403054,15.8203125 C13.3449798,15.8203125 15.604581,13.4043164 15.604581,10.546875 C15.604581,7.63910156 13.271176,5.2734375 10.403054,5.2734375 Z M10.403054,14.0742187 C8.48097417,14.0742187 6.92381037,12.4902539 6.92381037,10.546875 C6.92381037,8.60835937 8.49097266,7.01953125 10.403054,7.01953125 C12.3151353,7.01953125 13.8765181,8.60835937 13.8765181,10.546875 C13.8765181,12.4618945 12.3555916,14.0742187 10.403054,14.0742187 Z" id="Shape"></path>
            </g>
        </g>
    </g>
</svg>