<?xml version="1.0" encoding="UTF-8"?>
<svg width="24px" height="24px" viewBox="0 0 24 24" version="1.1" xmlns="http://www.w3.org/2000/svg" xmlns:xlink="http://www.w3.org/1999/xlink">
    <!-- Generator: Sketch 43.1 (39012) - http://www.bohemiancoding.com/sketch -->
    <title>003-call</title>
    <desc>Created with Sketch.</desc>
    <defs></defs>
    <g id="Page-1" stroke="none" stroke-width="1" fill="none" fill-rule="evenodd">
        <g id="контакты" transform="translate(-195.000000, -1472.000000)" fill-rule="nonzero" fill="#F0CEA0">
            <g id="003-call" transform="translate(195.000000, 1472.000000)">
                <path d="M23.3281404,18.4813567 L18.4792047,15.2476725 C17.8638596,14.8406082 17.0390175,14.9745497 16.5840936,15.555462 L15.1716491,17.3715088 C14.9901287,17.6108538 14.6601637,17.6802807 14.3975673,17.5344094 L14.1288889,17.3862924 C13.2382222,16.9008187 12.1300117,16.2964211 9.89716959,14.0627836 C7.66432749,11.8291462 7.05871345,10.7200936 6.57323977,9.83106433 L6.42591813,9.56238596 C6.27803509,9.29983626 6.34615205,8.96846784 6.58559064,8.78549708 L8.40042105,7.37347368 C8.98109942,6.91850292 9.11522807,6.09389474 8.70863158,5.47836257 L5.47494737,0.629426901 C5.05824561,0.00261988304 4.22222222,-0.18554386 3.57712281,0.202245614 L1.54947368,1.42025731 C0.912374269,1.79480702 0.444959064,2.40140351 0.245239766,3.11293567 C-0.484912281,5.77333333 0.064374269,10.3647719 6.82797661,17.1291696 C12.2082807,22.5090526 16.2136608,23.9558363 18.9666901,23.9558363 C19.6002807,23.9585497 20.2313918,23.876117 20.8430409,23.7107368 C21.5547135,23.5112515 22.1614035,23.0437895 22.5357193,22.4065029 L23.7549474,20.3800702 C24.1432982,19.7348304 23.9552281,18.8982924 23.3281404,18.4813567 Z M23.0670409,19.9704327 L21.8506199,21.9980819 C21.581848,22.4580585 21.1454971,22.7962573 20.6329825,22.941848 C18.1769825,23.6161404 13.8861754,23.0576374 7.39284211,16.5643041 C0.899508772,10.0709708 0.341052632,5.78053801 1.01534503,3.32416374 C1.16112281,2.81104094 1.49974269,2.37412865 1.9602807,2.10493567 L3.98792982,0.88851462 C4.26783626,0.720093567 4.63069006,0.801730994 4.81150877,1.07373099 L6.56809357,3.71097076 L8.04243275,5.92224561 C8.21899415,6.18923977 8.16098246,6.54708772 7.90909942,6.74465497 L6.09384795,8.15667836 C5.5414269,8.57908772 5.38367251,9.34339181 5.72378947,9.9499883 L5.86792982,10.211883 C6.37815205,11.1476491 7.01249123,12.3117661 9.32837427,14.6272749 C11.6442573,16.9427368 12.808,17.5771228 13.743345,18.0872982 L14.005614,18.2318129 C14.6121637,18.571883 15.3765146,18.4141754 15.798924,17.8617544 L17.2109474,16.0465029 C17.4085614,15.7947602 17.766269,15.7367953 18.0333567,15.9131696 L22.8818713,19.1468538 C23.1540585,19.3275322 23.2356959,19.6905731 23.0670409,19.9704327 Z" id="Shape"></path>
                <path d="M13.5747836,3.9948538 C17.3212632,3.99901754 20.3573333,7.0351345 20.3615439,10.781614 C20.3615439,11.0021053 20.5402573,11.1808187 20.7607485,11.1808187 C20.9812398,11.1808187 21.1599532,11.0021053 21.1599532,10.781614 C21.1553216,6.59433918 17.7620585,3.20102924 13.5747836,3.19644444 C13.3542924,3.19644444 13.1755789,3.37515789 13.1755789,3.59564912 C13.1755789,3.81614035 13.3542924,3.9948538 13.5747836,3.9948538 Z" id="Shape"></path>
                <path d="M13.5747836,6.39017544 C15.998924,6.39302924 17.9633684,8.35747368 17.9662222,10.781614 C17.9662222,11.0021053 18.1449825,11.1808187 18.3654269,11.1808187 C18.5859181,11.1808187 18.7646316,11.0021053 18.7646316,10.781614 C18.7613099,7.91667836 16.4396725,5.59504094 13.5747836,5.59176608 C13.3542924,5.59176608 13.1755789,5.77047953 13.1755789,5.99097076 C13.1755789,6.21146199 13.3542924,6.39017544 13.5747836,6.39017544 Z" id="Shape"></path>
                <path d="M13.5747836,8.78549708 C14.6766316,8.78680702 15.5695439,9.6797193 15.5709006,10.781614 C15.5709006,11.0021053 15.7496608,11.1808187 15.9701053,11.1808187 C16.1905497,11.1808187 16.3693099,11.0021053 16.3693099,10.781614 C16.3675322,9.23897076 15.1174269,7.98881871 13.5747836,7.98708772 C13.3542924,7.98708772 13.1755789,8.16580117 13.1755789,8.3862924 C13.1755789,8.60678363 13.3542924,8.78549708 13.5747836,8.78549708 Z" id="Shape"></path>
            </g>
        </g>
    </g>
</svg>