<?xml version="1.0" encoding="UTF-8"?>
<svg width="30px" height="30px" viewBox="0 0 30 30" version="1.1" xmlns="http://www.w3.org/2000/svg" xmlns:xlink="http://www.w3.org/1999/xlink">
    <!-- Generator: Sketch 43.1 (39012) - http://www.bohemiancoding.com/sketch -->
    <title>004-language</title>
    <desc>Created with Sketch.</desc>
    <defs></defs>
    <g id="Page-1" stroke="none" stroke-width="1" fill="none" fill-rule="evenodd">
        <g id="контакты" transform="translate(-192.000000, -1409.000000)" fill-rule="nonzero" fill="#F0CEA0">
            <g id="004-language" transform="translate(192.000000, 1409.000000)">
                <path d="M15,0 C6.71582031,0 0,6.71582031 0,15 C0,23.2841797 6.71582031,30 15,30 C23.2841797,30 30,23.2841797 30,15 C29.9907226,6.71972656 23.2802734,0.009277375 15,0 Z M27.9729004,20.2548828 L23.7070312,20.9909668 C24.1953125,19.2001953 24.4589844,17.3557129 24.4919434,15.5 L28.9875488,15.5 C28.9311524,17.1323242 28.5876465,18.7419434 27.9729004,20.2548828 L27.9729004,20.2548828 Z M1.01245119,15.5 L5.50805663,15.5 C5.54101563,17.3557129 5.8046875,19.2001953 6.29296875,20.9909668 L2.02709963,20.2548828 C1.4123535,18.7419434 1.06884763,17.1323242 1.01245119,15.5 Z M2.02709963,9.74511719 L6.29296875,9.00903319 C5.8046875,10.7998047 5.54101563,12.6442871 5.50805663,14.5 L1.01245119,14.5 C1.06884763,12.8676758 1.4123535,11.2580566 2.02709963,9.74511719 Z M15.5,8.02807619 C17.2966309,8.05102537 19.0888672,8.21459962 20.8601074,8.51757812 L22.625,8.8220215 C23.1672363,10.6672363 23.4589844,12.5769043 23.4924316,14.5 L15.5,14.5 L15.5,8.02807619 Z M21.0305176,7.53198244 C19.203125,7.21972656 17.3537598,7.05102538 15.5,7.02807619 L15.5,1.02807619 C18.3664551,1.30346681 20.8564453,3.9279785 22.2675781,7.74755862 L21.0305176,7.53198244 Z M14.5,7.02807619 C12.6462403,7.05102538 10.7973633,7.21972656 8.96997069,7.53198244 L7.73242188,7.74609375 C9.14355469,3.92553712 11.6335449,1.30004881 14.5,1.02587888 L14.5,7.02807619 Z M9.14038088,8.51757812 C10.9113769,8.21459962 12.7033691,8.05102537 14.5,8.02807619 L14.5,14.5 L6.50756838,14.5 C6.54101563,12.5769043 6.83276369,10.6672363 7.375,8.8220215 L9.14038088,8.51757812 Z M6.50756838,15.5 L14.5,15.5 L14.5,21.9719238 C12.7033691,21.9489746 10.9111328,21.7854004 9.13989256,21.4824219 L7.375,21.1779785 C6.83276369,19.3327637 6.54101563,17.4230957 6.50756838,15.5 L6.50756838,15.5 Z M8.96948244,22.4680176 C10.796875,22.7807618 12.6459961,22.9501953 14.5,22.9746094 L14.5,28.9746094 C11.6335449,28.6989746 9.14355469,26.0744629 7.73242188,22.2548828 L8.96948244,22.4680176 Z M15.5,22.9746094 C17.3537598,22.9501953 19.2026368,22.7807617 21.0300293,22.4680176 L22.2675781,22.2539062 C20.8564453,26.0744629 18.3664551,28.6999512 15.5,28.9741211 L15.5,22.9746094 Z M20.8596191,21.4824219 C19.0886231,21.7854004 17.2966309,21.9489746 15.5,21.9719238 L15.5,15.5 L23.4924316,15.5 C23.4589844,17.4230957 23.1672363,19.3327637 22.625,21.1779785 L20.8596191,21.4824219 Z M24.4919434,14.5 C24.4589844,12.6442871 24.1953125,10.7998047 23.7070312,9.00903319 L27.9729004,9.74511719 C28.5876465,11.2580566 28.9311524,12.8676758 28.9875488,14.5 L24.4919434,14.5 Z M27.467041,8.64306638 L23.3779297,7.9375 C22.6428223,5.53930663 21.2675781,3.38696288 19.3999024,1.71240237 C22.892334,2.87792969 25.7885743,5.36596681 27.467041,8.64306638 Z M10.6000976,1.71240237 C8.73242188,3.38696288 7.35717775,5.53930663 6.62207031,7.9375 L2.532959,8.64306638 C4.21142575,5.36596681 7.107666,2.87792969 10.6000976,1.71240237 Z M2.532959,21.3569336 L6.62207031,22.0625 C7.35717775,24.4606934 8.73242188,26.6130371 10.6000976,28.2875976 C7.107666,27.1220703 4.21142575,24.6340332 2.532959,21.3569336 Z M19.3999024,28.2875976 C21.2675781,26.6130371 22.6428222,24.4606934 23.3779297,22.0625 L27.467041,21.3569336 C25.7885742,24.6340332 22.892334,27.1220703 19.3999024,28.2875976 Z" id="Shape"></path>
            </g>
        </g>
    </g>
</svg>