<?xml version="1.0" encoding="UTF-8"?>
<svg width="31px" height="31px" viewBox="0 0 31 31" version="1.1" xmlns="http://www.w3.org/2000/svg" xmlns:xlink="http://www.w3.org/1999/xlink">
    <!-- Generator: Sketch 43.1 (39012) - http://www.bohemiancoding.com/sketch -->
    <title>confidential</title>
    <desc>Created with Sketch.</desc>
    <defs></defs>
    <g id="Page-1" stroke="none" stroke-width="1" fill="none" fill-rule="evenodd">
        <g id="О-компании" transform="translate(-691.000000, -1683.000000)" fill-rule="nonzero" fill="#F0CEA0">
            <g id="confidential" transform="translate(691.000000, 1683.000000)">
                <path d="M23.5,20 C22.1215,20 21,21.1215 21,22.5 C21,23.2815 21.377,24.02 22,24.4895 L22,27 L25,27 L25,24.4895 C25.623,24.02 26,23.2815 26,22.5 C26,21.1215 24.8785,20 23.5,20 Z M24.2485,23.7905 L24,23.935 L24,26 L23,26 L23,23.935 L22.7515,23.7905 C22.281,23.5165 22,23.034 22,22.5 C22,21.673 22.673,21 23.5,21 C24.327,21 25,21.673 25,22.5 C25,23.034 24.719,23.5165 24.2485,23.7905 Z" id="Shape"></path>
                <path d="M23.5,18 C20.4675,18 18,20.4675 18,23.5 C18,26.5325 20.4675,29 23.5,29 C26.5325,29 29,26.5325 29,23.5 C29,20.4675 26.5325,18 23.5,18 Z M23.5,28 C21.0185,28 19,25.9815 19,23.5 C19,21.0185 21.0185,19 23.5,19 C25.9815,19 28,21.0185 28,23.5 C28,25.9815 25.9815,28 23.5,28 Z" id="Shape"></path>
                <path d="M29.5,16.212 L29.5,12 C29.5,8.86 27.075,6.281 24,6.0255 L24,0 L2,0 L2,7.0505 C0.8605,7.283 0,8.293 0,9.5 L0,23.5 C0,24.8785 1.1215,26 2.5,26 L16,26 L16,28.5 C16,29.8785 17.1215,31 18.5,31 L28.5,31 C29.8785,31 31,29.8785 31,28.5 L31,18.5 C31,17.4775 30.3815,16.599 29.5,16.212 Z M28.5,12 L28.5,16 L26.5,16 L26.5,12 C26.5,10.3455 25.1545,9 23.5,9 C21.8455,9 20.5,10.3455 20.5,12 L20.5,16 L18.5,16 L18.5,12 C18.5,9.243 20.743,7 23.5,7 C26.257,7 28.5,9.243 28.5,12 Z M25.5,16 L21.5,16 L21.5,12 C21.5,10.897 22.397,10 23.5,10 C24.603,10 25.5,10.897 25.5,12 L25.5,16 Z M23,1 L23,6.0255 C20.6125,6.224 18.623,7.824 17.85,10 L9.809,10 L9,8.382 C8.573,7.5295 7.717,7 6.764,7 L3,7 L3,1 L23,1 Z M2.5,8 L6.764,8 C7.3355,8 7.8495,8.318 8.1055,8.829 L9.191,11 L17.5905,11 C17.5355,11.326 17.5,11.6585 17.5,12 L17.5,13 L1,13 L1,9.5 C1,8.673 1.673,8 2.5,8 Z M16,18.5 L16,25 L2.5,25 C1.673,25 1,24.327 1,23.5 L1,14 L17.5,14 L17.5,16.212 C16.6185,16.599 16,17.4775 16,18.5 Z M30,28.5 C30,29.327 29.327,30 28.5,30 L18.5,30 C17.673,30 17,29.327 17,28.5 L17,18.5 C17,17.673 17.673,17 18.5,17 L28.5,17 C29.327,17 30,17.673 30,18.5 L30,28.5 Z" id="Shape"></path>
                <path d="M7,9 L2,9 L2,12 L7,12 L7,9 Z M6,11 L3,11 L3,10 L6,10 L6,11 Z" id="Shape"></path>
                <circle id="Oval" cx="18.5" cy="18.5" r="1"></circle>
                <circle id="Oval" cx="18.5" cy="28.5" r="1"></circle>
                <circle id="Oval" cx="28.5" cy="18.5" r="1"></circle>
                <circle id="Oval" cx="28.5" cy="28.5" r="1"></circle>
                <polygon id="Shape" points="4 2 5 2 5 3 4 3"></polygon>
                <polygon id="Shape" points="6 2 22 2 22 3 6 3"></polygon>
                <polygon id="Shape" points="4 4 22 4 22 5 4 5"></polygon>
                <polygon id="Shape" points="10.5 6 17.5 6 17.5 7 10.5 7"></polygon>
                <polygon id="Shape" points="10.5 8 17.5 8 17.5 9 10.5 9"></polygon>
                <path d="M10,23 L9,23 L9,16 L6,16 L6,23 L5,23 L5,19 L2,19 L2,24 L13,24 L13,20 L10,20 L10,23 Z M4,23 L3,23 L3,20 L4,20 L4,23 Z M7,17 L8,17 L8,23 L7,23 L7,17 Z M11,21 L12,21 L12,23 L11,23 L11,21 Z" id="Shape"></path>
            </g>
        </g>
    </g>
</svg>