<?xml version="1.0" encoding="UTF-8"?>
<svg width="30px" height="23px" viewBox="0 0 30 23" version="1.1" xmlns="http://www.w3.org/2000/svg" xmlns:xlink="http://www.w3.org/1999/xlink">
    <!-- Generator: Sketch 43.1 (39012) - http://www.bohemiancoding.com/sketch -->
    <title>002-email</title>
    <desc>Created with Sketch.</desc>
    <defs></defs>
    <g id="Page-1" stroke="none" stroke-width="1" fill="none" fill-rule="evenodd">
        <g id="контакты" transform="translate(-192.000000, -1353.000000)" fill-rule="nonzero" fill="#F0CEA0">
            <g id="002-email" transform="translate(192.000000, 1353.000000)">
                <path d="M27.30757,0 L2.63135043,0 C1.18223651,0 0,1.18095007 0,2.63135043 L0,20.1736866 C0,21.6191751 1.17697381,22.8050371 2.63135043,22.8050371 L27.30757,22.8050371 C28.7530585,22.8050371 29.9389205,21.6280633 29.9389205,20.1736866 L29.9389205,2.63135043 C29.9389205,1.18586193 28.7619466,0 27.30757,0 Z M26.9442098,1.75423362 L15.0252449,13.673257 L3.00318948,1.75423362 L26.9442098,1.75423362 Z M1.75423362,19.8104433 L1.75423362,2.98623189 L10.2025643,11.3621127 L1.75423362,19.8104433 Z M2.99465221,21.0508034 L11.448304,12.5971516 L14.4104444,15.5338557 C14.7533386,15.8738261 15.3066824,15.8727151 15.6481732,15.5311658 L18.5364019,12.6429371 L26.9442682,21.0508034 L2.99465221,21.0508034 Z M28.1846868,19.8103849 L19.7768205,11.4025185 L28.1846868,2.99459374 L28.1846868,19.8103849 Z" id="Shape"></path>
            </g>
        </g>
    </g>
</svg>