<?xml version="1.0" encoding="UTF-8"?>
<svg width="31px" height="31px" viewBox="0 0 31 31" version="1.1" xmlns="http://www.w3.org/2000/svg" xmlns:xlink="http://www.w3.org/1999/xlink">
    <!-- Generator: Sketch 43.1 (39012) - http://www.bohemiancoding.com/sketch -->
    <title>guarantee</title>
    <desc>Created with Sketch.</desc>
    <defs></defs>
    <g id="Page-1" stroke="none" stroke-width="1" fill="none" fill-rule="evenodd">
        <g id="О-компании" transform="translate(-351.000000, -1683.000000)" fill-rule="nonzero" fill="#F0CEA0">
            <g id="guarantee" transform="translate(351.000000, 1683.000000)">
                <path d="M26.0576519,19.3317184 C27.3683841,17.364418 28.1325191,15.0113678 28.1325191,12.4847183 C28.1325191,5.60058594 22.4652838,0 15.4995214,0 C8.53375897,0 2.86676292,5.60058594 2.86676292,12.4847183 C2.86676292,15.0113678 3.63089797,17.364418 4.94139081,19.3317184 L0,26.4537811 L5.65431233,25.4119491 L6.70873732,31 L11.3686929,24.2833176 C12.6638695,24.7274857 14.0535758,24.9694367 15.4995214,24.9694367 C16.9457062,24.9694367 18.3354125,24.7274857 19.6303499,24.2833176 L24.2905447,31 L25.3447304,25.4119491 L30.9990427,26.4537811 L26.0576519,19.3317184 Z M7.70788043,26.3289032 L7.13280476,23.2807464 L4.04874324,23.8493195 L6.12983266,20.8496475 C7.12658259,21.9390182 8.31478508,22.8538437 9.64107278,23.5430374 L7.70788043,26.3289032 Z M4.71547678,12.4847183 C4.71547678,6.60812378 9.5532439,1.82704924 15.4995214,1.82704924 C21.4460382,1.82704924 26.2838053,6.60812378 26.2838053,12.4847183 C26.2838053,18.3615494 21.4460382,23.1426239 15.4995214,23.1426239 C9.5532439,23.1426239 4.71547678,18.3615494 4.71547678,12.4847183 L4.71547678,12.4847183 Z M23.866238,23.2807464 L23.2911623,26.3289032 L21.3582093,23.5430374 C22.684497,22.8538437 23.8726995,21.9390182 24.8694494,20.8496475 L26.9505389,23.8490829 L23.866238,23.2807464 Z" id="Shape"></path>
                <polygon id="Shape" points="13.2475605 15.226593 10.2417552 12.2562485 8.9346128 13.5480728 13.2475605 17.8104782 22.0646693 9.09693147 20.7575268 7.8051071"></polygon>
            </g>
        </g>
    </g>
</svg>