<?xml version="1.0" encoding="utf-8"?>
<!-- Generator: Adobe Illustrator 24.1.0, SVG Export Plug-In . SVG Version: 6.00 Build 0)  -->
<svg version="1.1" id="Слой_1" xmlns="http://www.w3.org/2000/svg" xmlns:xlink="http://www.w3.org/1999/xlink" x="0px" y="0px"
	 viewBox="0 0 255.1 141.7" style="enable-background:new 0 0 255.1 141.7;" xml:space="preserve">
<style type="text/css">
	.st0{fill:#F0CEA0;}
	.st1{fill:none;stroke:#F0CEA0;stroke-width:0.45;stroke-miterlimit:10;}
	.st2{fill:#112222;}
	.st3{fill:#F0CEA0;stroke:#F0CEA0;stroke-width:0.75;stroke-miterlimit:10;}
</style>
<path class="st0" d="M81.2,66.4c0-0.9,0.3-1.8,0.8-2.5c0.5-0.7,1.3-1.1,2.1-1.1c0.7,0,1.3,0.3,1.8,0.8c0.5,0.5,0.7,1.1,0.8,1.8
	c0,1.7-0.8,2.5-2.2,2.5c-0.4,0-0.8-0.1-1.2-0.2c0.9,3.3,4.5,4.9,11,4.9c6,0,12.3-3.1,19-9.2c2.6-2.4,8.4-8.8,17.3-19.2
	c7.1-8.3,13.1-13.9,17.9-16.7c-2.3-2.7-5.2-4.7-8.6-5.9c-3.3-1.3-6.8-1.9-10.3-1.9c-5.3,0.1-10.6,1.1-15.5,3
	c-5.7,1.8-10.9,4.7-15.5,8.5c-4.7,4.1-7,8.5-7,13.3c0,2.6,1.3,5.1,3.5,6.5c2.2,1.4,4.8,2.2,7.4,2.1c4.9,0,10.3-1.8,16.2-5.3
	c6.5-4,9.7-8.3,9.7-12.9c0.1-1.7-0.8-3.4-2.3-4.3c-1.4-0.9-3.1-1.3-4.8-1.3c-7,0-14.8,5.1-23.2,15.3c-0.8,1-1.6,2.1-2.5,3L95.1,47
	c1.4-3.9,5-8,10.9-12.3s10.9-6.4,15.1-6.5c2-0.1,4,0.4,5.7,1.5c1.7,1.1,2.6,3,2.6,5c0,5.3-3.1,10-9.4,13.9c-5,3.3-10.8,5.1-16.8,5.2
	c-3,0.1-5.9-0.6-8.5-2.1c-2.7-1.4-4.3-4.3-4.2-7.3c0-7.5,4.8-13.9,14.5-19.1c8.3-4.5,16.5-6.8,24.7-6.8c8.3,0,14.8,2.7,19.6,8.2
	c1.2-0.7,3.1-1.8,5.7-3.2c3.1-1.7,4.9-2.5,5.4-2.5c0.3,0,0.5,0.2,0.6,0.6l-0.2,0.3c-3.8,1.7-7.4,3.6-11,5.7c1.5,2.3,2.3,5,2.5,7.8
	c0,3.2-1.2,6.3-3.3,8.6c-2,2.5-5,4-8.1,4c-0.9,0-1.7-0.3-2.4-0.9c-0.7-0.5-1-1.4-1-2.2c0-1.3,1-2.8,3-4.6s3.7-2.7,5-2.7l0.3,0.5
	l-0.3,0.5c-4.6,1.9-6.9,4-6.9,6.4c0,0.9,0.4,1.4,1.2,1.4c2.5,0,5-1.6,7.4-4.9c2.3-3.1,3.4-6,3.4-8.6c0-1.7-0.6-3.3-1.5-4.7
	c-2.4,1.6-4.5,3.6-6.3,5.9c-0.2,0.3-2,2.7-5.2,7.1c-5.6,7.7-9.4,12.7-11.3,15c-3.8,4.8-8.4,8.9-13.6,12.2c-5.4,3.3-11.7,5-18,5
	c-2.8,0-5.6-0.4-8.2-1.4C82.9,70.8,81.2,68.9,81.2,66.4z"/>
<path class="st0" d="M144.8,81.6c2.6-0.2,5.1-1,7.2-2.6c2.1-1.5,3.9-3.3,5.4-5.3c1.6-2,3.2-4.1,4.8-6.1l0.4-0.2l0.4,0.4
	c-0.9,1.5-1.9,2.9-3,4.2c-2,2.7-4.2,5.1-6.8,7.2c-2.6,2.1-5.8,3.3-9.1,3.5c-11,18-23.6,27-37.8,27c-2.4,0.1-4.8-0.4-7.1-1.4
	c-2.6-1.2-3.9-3.1-3.9-5.5c0-1,0.3-2,1-2.8c0.6-0.8,1.6-1.2,2.6-1.2c1.1-0.1,2,0.6,2.2,1.7c0,0.2,0,0.4,0,0.5
	c0.2,1.2-0.6,2.2-1.8,2.4c-0.2,0-0.4,0-0.6,0c-0.6,0-1.2-0.3-1.5-0.8c-0.2,0.3-0.2,0.7-0.2,1c0,1.9,1.2,3.2,3.5,4.1
	c1.9,0.7,4,1,6,0.9c7.6,0.1,15-3,20.3-8.4c3.2-3.2,7.6-9.3,13.2-18.4c-4.2-1.5-6.3-4.1-6.3-7.9c0-6.7,4.7-12.1,14.1-16.3
	c7.1-3.3,14.9-5.1,22.8-5.1c2.9,0,4.4,0.2,4.7,0.7l-0.2,0.3c-7.5,2.5-13.5,6.1-18.1,10.8C153.7,67.5,149.7,73.3,144.8,81.6z
	 M140.5,80.9c5.1-7.3,9.7-12.9,13.8-16.6c5.2-5,11.5-8.7,18.3-11c-6.4,0-12.8,1.1-18.8,3.2c-6.9,2.4-12.1,5.9-15.6,10.6
	c-2.2,2.8-3.3,5.5-3.2,8.1c0.1,1.5,0.8,2.8,1.9,3.7C137.9,79.8,139.1,80.5,140.5,80.9z"/>
<rect x="74.2" y="10.7" class="st1" width="106.7" height="106.7"/>
<rect x="66.3" y="109.5" class="st2" width="15.8" height="15.8"/>
<g>
	<path class="st3" d="M76.8,131.3v4.6h-0.8v-11.4h2.9c1.1-0.1,2.1,0.2,3,0.9c0.7,0.6,1.1,1.6,1,2.5c0,0.5-0.1,0.9-0.3,1.4
		c-0.2,0.4-0.5,0.8-0.8,1.1c-0.4,0.3-0.8,0.6-1.3,0.7c-0.5,0.2-1.1,0.3-1.7,0.2H76.8z M76.8,130.7h2.1c0.5,0,0.9-0.1,1.3-0.2
		c0.4-0.1,0.7-0.3,1-0.6c0.3-0.2,0.5-0.5,0.6-0.9c0.1-0.3,0.2-0.7,0.2-1.1c0-0.8-0.3-1.5-0.8-2c-0.7-0.5-1.5-0.8-2.4-0.7h-2.1V130.7
		z"/>
	<path class="st3" d="M95.4,130.2c0,0.8-0.1,1.6-0.4,2.4c-0.2,0.7-0.6,1.3-1.1,1.8c-0.5,0.5-1.1,0.9-1.7,1.2c-1.4,0.5-3,0.5-4.4,0
		c-0.6-0.3-1.2-0.7-1.7-1.2c-0.5-0.5-0.9-1.2-1.1-1.8c-0.5-1.6-0.5-3.2,0-4.8c0.2-0.7,0.6-1.3,1.1-1.8c0.5-0.5,1.1-0.9,1.7-1.2
		c1.4-0.6,3-0.6,4.4,0c0.7,0.3,1.2,0.7,1.7,1.2c0.5,0.5,0.9,1.2,1.1,1.8C95.3,128.6,95.4,129.4,95.4,130.2z M94.6,130.2
		c0-0.7-0.1-1.5-0.3-2.1c-0.2-0.6-0.5-1.1-0.9-1.6c-0.4-0.4-0.9-0.8-1.4-1c-0.6-0.2-1.2-0.4-1.9-0.3c-0.6,0-1.3,0.1-1.9,0.3
		c-0.6,0.2-1,0.6-1.4,1c-0.4,0.5-0.7,1-0.9,1.6c-0.4,1.4-0.4,2.9,0,4.3c0.2,0.6,0.5,1.1,0.9,1.6c0.4,0.4,0.9,0.8,1.4,1
		c0.6,0.2,1.2,0.4,1.9,0.4c0.6,0,1.3-0.1,1.9-0.4c0.5-0.2,1-0.6,1.4-1c0.4-0.5,0.7-1,0.9-1.6C94.4,131.7,94.6,131,94.6,130.2z"/>
	<path class="st3" d="M98.9,135.2h5.4v0.7h-6.2v-11.4h0.8L98.9,135.2z"/>
	<path class="st3" d="M107.4,135.9h-0.8v-11.4h0.8V135.9z"/>
	<path class="st3" d="M111.7,124.6c0.1,0,0.1,0.1,0.1,0.1l7.4,9.9c0-0.2,0-0.3,0-0.5v-9.6h0.8v11.4h-0.4c-0.1,0-0.2-0.1-0.3-0.2
		l-7.4-9.9v10h-0.7v-11.4h0.4C111.6,124.5,111.7,124.5,111.7,124.6z"/>
	<path class="st3" d="M121.7,124.5h0.7c0.1,0,0.1,0,0.2,0.1c0.1,0,0.1,0.1,0.1,0.2l3.9,9.5c0.1,0.3,0.2,0.5,0.2,0.8
		c0.1-0.3,0.1-0.5,0.2-0.8l3.9-9.5c0-0.1,0.1-0.1,0.1-0.2c0.1,0,0.1-0.1,0.2-0.1h0.6l-4.7,11.4h-0.7L121.7,124.5z"/>
	<path class="st3" d="M140.5,124.5v0.7h-6v4.6h5v0.7h-5v4.8h6v0.7h-6.8v-11.4H140.5z"/>
	<path class="st3" d="M148.7,125.9c0,0.1-0.1,0.1-0.2,0.1c-0.1,0-0.2-0.1-0.3-0.2c-0.1-0.1-0.3-0.2-0.4-0.3
		c-0.2-0.1-0.5-0.3-0.7-0.3c-0.3-0.1-0.7-0.2-1-0.2c-0.4,0-0.7,0-1.1,0.2c-0.3,0.1-0.6,0.3-0.8,0.5c-0.2,0.2-0.4,0.4-0.5,0.7
		c-0.1,0.3-0.2,0.6-0.2,0.8c0,0.4,0.1,0.7,0.2,1c0.2,0.3,0.4,0.5,0.6,0.6c0.3,0.2,0.6,0.3,0.9,0.4l1.1,0.4c0.4,0.1,0.7,0.2,1.1,0.4
		c0.3,0.1,0.6,0.3,0.9,0.5c0.6,0.5,0.9,1.2,0.9,2c0,0.5-0.1,0.9-0.3,1.3c-0.2,0.4-0.4,0.8-0.7,1.1c-0.3,0.3-0.7,0.6-1.1,0.7
		c-0.5,0.2-1,0.3-1.5,0.3c-0.7,0-1.3-0.1-1.9-0.4c-0.5-0.3-1-0.6-1.4-1.1l0.2-0.4c0-0.1,0.1-0.1,0.2-0.1c0.1,0,0.1,0,0.2,0.1
		l0.3,0.2c0.1,0.1,0.3,0.2,0.4,0.3c0.2,0.1,0.3,0.2,0.5,0.3c0.2,0.1,0.5,0.2,0.7,0.2c0.3,0.1,0.6,0.1,0.9,0.1c0.4,0,0.8-0.1,1.2-0.2
		c0.3-0.1,0.6-0.3,0.9-0.6c0.2-0.2,0.4-0.5,0.6-0.8c0.1-0.3,0.2-0.7,0.2-1c0-0.4-0.1-0.7-0.2-1c-0.2-0.3-0.4-0.5-0.6-0.6
		c-0.3-0.2-0.6-0.3-0.9-0.4l-1-0.3c-0.3-0.1-0.7-0.2-1-0.4c-0.3-0.1-0.6-0.3-0.9-0.5c-0.3-0.2-0.5-0.5-0.6-0.8
		c-0.2-0.4-0.3-0.8-0.2-1.2c0-0.4,0.1-0.7,0.2-1.1c0.1-0.4,0.4-0.7,0.6-0.9c0.3-0.3,0.6-0.5,1-0.7c0.4-0.2,0.9-0.3,1.4-0.2
		c0.5,0,1.1,0.1,1.6,0.3c0.5,0.2,0.9,0.5,1.3,0.9L148.7,125.9z"/>
	<path class="st3" d="M159.1,124.5v0.7h-4v10.7h-0.8v-10.7h-4v-0.7L159.1,124.5z"/>
	<path class="st3" d="M167.3,124.4c0.4,0,0.8,0.1,1.2,0.2c0.4,0.1,0.7,0.3,1,0.6c0.3,0.3,0.5,0.6,0.7,1c0.2,0.4,0.3,0.9,0.3,1.3
		c0,0.4-0.1,0.8-0.2,1.2c-0.1,0.4-0.3,0.7-0.5,1c-0.2,0.4-0.5,0.7-0.8,1l-0.9,1l-3.6,3.6c0.2,0,0.4-0.1,0.5-0.1h5.5
		c0.1,0,0.2,0,0.2,0.1c0.1,0.1,0.1,0.1,0.1,0.2v0.5h-7.4v-0.3c0-0.1,0-0.1,0.1-0.2c0-0.1,0.1-0.1,0.1-0.2l3.9-3.9
		c0.3-0.3,0.6-0.6,0.9-1c0.3-0.3,0.5-0.6,0.7-0.9c0.2-0.3,0.4-0.6,0.5-1c0.1-0.3,0.2-0.7,0.2-1c0-0.4-0.1-0.7-0.2-1.1
		c-0.3-0.6-0.8-1-1.4-1.2c-0.6-0.2-1.4-0.2-2,0c-0.3,0.1-0.6,0.3-0.8,0.5c-0.2,0.2-0.4,0.4-0.6,0.7c-0.2,0.3-0.3,0.6-0.3,0.9
		c0,0.2-0.2,0.3-0.3,0.3h-0.1l-0.4-0.1c0-0.5,0.2-0.9,0.4-1.3c0.2-0.4,0.4-0.7,0.8-1c0.3-0.3,0.7-0.5,1.1-0.6
		C166.3,124.5,166.8,124.4,167.3,124.4z"/>
	<path class="st3" d="M180.5,130.2c0,0.9-0.1,1.8-0.3,2.6c-0.2,0.7-0.5,1.3-0.9,1.8c-0.7,0.9-1.8,1.4-2.9,1.4
		c-0.6,0-1.1-0.1-1.6-0.4c-0.5-0.2-1-0.6-1.3-1.1c-0.4-0.5-0.7-1.2-0.9-1.8c-0.4-1.7-0.4-3.5,0-5.2c0.2-0.7,0.5-1.3,0.9-1.8
		c0.3-0.5,0.8-0.8,1.3-1.1c1-0.5,2.2-0.5,3.2,0c0.5,0.3,1,0.6,1.3,1.1c0.4,0.5,0.7,1.2,0.9,1.8C180.4,128.5,180.6,129.3,180.5,130.2
		z M179.7,130.2c0-0.8-0.1-1.6-0.3-2.4c-0.1-0.6-0.4-1.1-0.7-1.6c-0.2-0.4-0.6-0.7-1-0.9c-0.8-0.4-1.7-0.4-2.5,0
		c-0.4,0.2-0.7,0.5-1,0.9c-0.3,0.5-0.6,1-0.7,1.6c-0.4,1.6-0.4,3.2,0,4.7c0.1,0.6,0.4,1.1,0.7,1.6c0.3,0.4,0.6,0.7,1,0.9
		c0.8,0.4,1.7,0.4,2.5,0c0.4-0.2,0.7-0.5,1-0.9c0.3-0.5,0.6-1,0.7-1.6C179.7,131.8,179.7,131,179.7,130.2z"/>
</g>
<rect x="173" y="2.8" class="st2" width="15.8" height="15.8"/>
</svg>
