<svg id="Слой_1" data-name="Слой 1" xmlns="http://www.w3.org/2000/svg" viewBox="0 0 549.03 597.15">
  <defs>
    <style>
      .cls-1 {
        fill: #f0ce9f;
      }

      .cls-2 {
        fill: none;
        stroke: #f0ce9f;
        stroke-miterlimit: 10;
        stroke-width: 2.03px;
      }

      .cls-3 {
        fill: #122222;
      }
    </style>
  </defs>
  <title>logo</title>
  <g>
    <path class="cls-1" d="M405.15,347.94a18.52,18.52,0,0,1,3.75-11.13,11.39,11.39,0,0,1,9.59-5.15,10.45,10.45,0,0,1,7.83,3.5,11.25,11.25,0,0,1,3.34,8q0,11.34-10,11.34a17.75,17.75,0,0,1-5.5-1q5.84,21.84,49.19,21.84,40.35,0,85.37-41.21,17.5-15.86,77.7-86.1,47.85-55.72,80-74.91-14.16-17.35-38.32-26.7A124.61,124.61,0,0,0,622,137.74q-31,0-69.65,13.36Q509.65,166,482.83,189.15q-31.5,27.39-31.5,59.59,0,18.54,15.83,29.38,13.81,9.35,33,9.35,33.15,0,72.46-23.88,43.64-26.71,43.64-57.61,0-12.71-10-19.38-8.51-5.67-21.67-5.67-47.35,0-104,68.66-5,6.53-11.34,13.7l-1.66-2q9.5-26.34,48.68-55,39.85-29.18,67.7-29.18,15.33,0,25.34,6.67,11.5,7.85,11.51,22.51,0,36-42,62.36Q541.53,292,503.36,292q-22.51,0-38.19-9.34Q446.33,271.3,446.33,250q0-50.36,65-85.71,55.51-30.34,110.54-30.34,55.86,0,87.87,36.68,8.18-5,25.68-14.51,21-11.33,24.34-11.33c1.45,0,2.34.83,2.67,2.5l-.83,1.5a516.48,516.48,0,0,0-49.36,25.51q11.18,19.67,11.18,34.85,0,21.34-15,38.51-15.68,17.85-36.51,17.84a16.1,16.1,0,0,1-10.68-3.92,12.4,12.4,0,0,1-4.67-9.92q0-8.67,13.68-20.67t22.51-11.84l1.33,2.17-1.33,2.16Q661.92,236,661.92,252q0,6.16,5.34,6.17,16.83,0,33-22,15.35-20.85,15.34-38.35,0-10.34-6.84-21-14.34,9.33-28.34,26.66-1.66,2-23.18,31.65-37.68,52-50.69,67.3-30.67,36.33-60.69,54.48a153.69,153.69,0,0,1-80.53,22.33q-20.85,0-37.18-6Q405.15,364.88,405.15,347.94Z" transform="translate(-338.61 -63)"/>
    <path class="cls-1" d="M690.54,416A61.65,61.65,0,0,0,722.7,404.4q11.56-8,24.46-24,10.56-13.72,21.27-27.47l1.68-.84,2,1.68q-.17,1.67-13.23,18.76-17.1,22.11-30.49,32.33-19.1,14.75-40.71,15.75Q613.82,541.43,518.33,541.43q-18.25,0-31.66-6.2Q469.24,527,469.25,510.6a19.22,19.22,0,0,1,4.27-12.48,13.85,13.85,0,0,1,11.31-5.27q9.54,0,9.55,9.88,0,10.72-10.56,10.72-3.51,0-6.87-3.52a10.38,10.38,0,0,0-1,4.69q0,12.57,15.75,18.43,11.39,4.19,26.8,4.19,52.43,0,91-37.69,21.62-21.1,59.3-82.59-28.14-9.88-28.14-35.51,0-44.9,63-73.21,50.92-23,102-22.95,19.26,0,20.94,3l-1,1.34q-50.26,16.92-80.91,48.41Q723.2,360.17,690.54,416Zm-19.27-3q34.51-49.24,61.65-74.54Q769.61,304.05,815,289q-44.71.33-84.26,14.24-46.23,16.41-70,47.24-14.58,18.77-14.57,36.18,0,8.72,8.54,16.58A42.39,42.39,0,0,0,671.27,412.94Z" transform="translate(-338.61 -63)"/>
    <rect class="cls-2" x="35.45" y="35.45" width="478.12" height="478.12"/>
    <rect class="cls-3" y="478.12" width="70.91" height="70.91"/>
    <g>
      <path class="cls-1" d="M385.39,639v20.57h-3.68V608.51h13.17c6,0,10.51,1.32,13.56,3.94s4.56,6.36,4.56,11.22a15.09,15.09,0,0,1-1.25,6.17,13.63,13.63,0,0,1-3.59,4.86,16.9,16.9,0,0,1-5.7,3.17,23.44,23.44,0,0,1-7.58,1.14Zm0-3h9.49a18.12,18.12,0,0,0,6.07-.94,13.39,13.39,0,0,0,4.53-2.6,11.47,11.47,0,0,0,2.85-3.91,12.16,12.16,0,0,0,1-4.93q0-5.88-3.63-9.06t-10.81-3.17h-9.49Z" transform="translate(-338.61 -63)"/>
      <path class="cls-1" d="M469,634a30.93,30.93,0,0,1-1.76,10.73,23.81,23.81,0,0,1-5,8.23,22.12,22.12,0,0,1-7.69,5.27,27.2,27.2,0,0,1-19.77,0,22,22,0,0,1-7.69-5.27,24,24,0,0,1-5-8.23,33,33,0,0,1,0-21.43,24,24,0,0,1,5-8.23,22.21,22.21,0,0,1,7.69-5.29,25.2,25.2,0,0,1,9.85-1.87,25.6,25.6,0,0,1,9.92,1.86,22,22,0,0,1,7.69,5.28,24.09,24.09,0,0,1,5,8.25A30.83,30.83,0,0,1,469,634Zm-3.82,0a29.05,29.05,0,0,0-1.48-9.6,20.74,20.74,0,0,0-4.17-7.22,17.91,17.91,0,0,0-6.48-4.53,21.82,21.82,0,0,0-8.4-1.57,21.56,21.56,0,0,0-8.32,1.57,18.33,18.33,0,0,0-6.5,4.53,20.67,20.67,0,0,0-4.22,7.22,31.5,31.5,0,0,0,0,19.21,20.67,20.67,0,0,0,4.22,7.2,17.91,17.91,0,0,0,6.5,4.51,21.56,21.56,0,0,0,8.32,1.56,21.82,21.82,0,0,0,8.4-1.56,17.5,17.5,0,0,0,6.48-4.51,20.73,20.73,0,0,0,4.17-7.2A29,29,0,0,0,465.18,634Z" transform="translate(-338.61 -63)"/>
      <path class="cls-1" d="M484.7,656.44h24.21v3.14H481V608.51h3.68Z" transform="translate(-338.61 -63)"/>
      <path class="cls-1" d="M523,659.58h-3.72V608.51H523Z" transform="translate(-338.61 -63)"/>
      <path class="cls-1" d="M542.11,608.64a1.8,1.8,0,0,1,.62.56l33,44.24c-.07-.72-.11-1.42-.11-2.09V608.51h3.25v51.07h-1.77a1.53,1.53,0,0,1-1.33-.73l-33.2-44.31c.07.72.11,1.41.11,2.06v43h-3.22V608.51h1.81A2.09,2.09,0,0,1,542.11,608.64Z" transform="translate(-338.61 -63)"/>
      <path class="cls-1" d="M587,608.51H590a1.19,1.19,0,0,1,.83.28,1.74,1.74,0,0,1,.51.7l17.39,42.36a22.52,22.52,0,0,1,1.12,3.54,18.89,18.89,0,0,1,1.05-3.54l17.35-42.36a2,2,0,0,1,.53-.69,1.26,1.26,0,0,1,.84-.29h2.89L611.4,659.58h-3.29Z" transform="translate(-338.61 -63)"/>
      <path class="cls-1" d="M671.19,608.51v3.07H644.31v20.64h22.37v3H644.31v21.29h26.88v3.07h-30.6V608.51Z" transform="translate(-338.61 -63)"/>
      <path class="cls-1" d="M708,614.72a1,1,0,0,1-.94.61,2.09,2.09,0,0,1-1.21-.66,15.6,15.6,0,0,0-5.18-3,15.82,15.82,0,0,0-9.59.11,10.3,10.3,0,0,0-3.55,2.16,9.29,9.29,0,0,0-2.17,3.18,9.77,9.77,0,0,0-.74,3.79,7.68,7.68,0,0,0,1.1,4.29,9.78,9.78,0,0,0,2.91,2.89,18.83,18.83,0,0,0,4.1,2q2.29.81,4.72,1.61t4.71,1.75a17.06,17.06,0,0,1,4.1,2.4,10.82,10.82,0,0,1,2.91,3.55,11.21,11.21,0,0,1,1.1,5.25,16.45,16.45,0,0,1-1.1,6.05,14,14,0,0,1-3.19,4.92,14.87,14.87,0,0,1-5.12,3.3,18.54,18.54,0,0,1-6.93,1.21,19.6,19.6,0,0,1-8.7-1.78,20.49,20.49,0,0,1-6.39-4.89l1-1.59a1.28,1.28,0,0,1,1-.54,1.45,1.45,0,0,1,.84.43l1.22,1.07c.49.42,1.06.87,1.74,1.37a14.41,14.41,0,0,0,2.35,1.37,16.66,16.66,0,0,0,3.07,1.06,16.26,16.26,0,0,0,3.94.44,15.06,15.06,0,0,0,5.42-.92,12,12,0,0,0,4-2.51,10.79,10.79,0,0,0,2.51-3.77,12.56,12.56,0,0,0,.87-4.68,8.16,8.16,0,0,0-1.11-4.45,9.46,9.46,0,0,0-2.91-2.93,18.76,18.76,0,0,0-4.1-2q-2.3-.79-4.71-1.55c-1.62-.51-3.19-1.07-4.72-1.7a16.13,16.13,0,0,1-4.1-2.4,11.11,11.11,0,0,1-2.91-3.64,12.16,12.16,0,0,1-1.1-5.47,12.87,12.87,0,0,1,1-4.94A12.54,12.54,0,0,1,685,612a14,14,0,0,1,4.64-2.92,16.87,16.87,0,0,1,6.31-1.1,19.17,19.17,0,0,1,7.14,1.26,17.22,17.22,0,0,1,5.76,3.86Z" transform="translate(-338.61 -63)"/>
      <path class="cls-1" d="M754.29,608.51v3.14H736.36v47.93h-3.68V611.65h-18v-3.14Z" transform="translate(-338.61 -63)"/>
      <path class="cls-1" d="M791.21,607.94a18,18,0,0,1,5.57.85,13.48,13.48,0,0,1,4.68,2.56,12.29,12.29,0,0,1,3.21,4.29,14.38,14.38,0,0,1,1.19,6.05A15.72,15.72,0,0,1,805,627a21.86,21.86,0,0,1-2.4,4.75,34.78,34.78,0,0,1-3.52,4.42q-2,2.14-4.21,4.38l-16,16.32a18.19,18.19,0,0,1,2.4-.44,23.17,23.17,0,0,1,2.51-.14h22a1.23,1.23,0,0,1,.92.34,1.2,1.2,0,0,1,.35.89v2h-33v-1.23a1.86,1.86,0,0,1,.2-.81,2.43,2.43,0,0,1,.49-.71l17.43-17.64q2.16-2.21,4-4.26a34.49,34.49,0,0,0,3.2-4.15,20.35,20.35,0,0,0,2.12-4.29,14,14,0,0,0,.78-4.7,11.75,11.75,0,0,0-.94-4.89,9.5,9.5,0,0,0-2.51-3.41,10.24,10.24,0,0,0-3.61-2,14,14,0,0,0-4.27-.65,13.08,13.08,0,0,0-4.46.74,11.79,11.79,0,0,0-3.61,2.06,11.27,11.27,0,0,0-2.59,3.14,12.45,12.45,0,0,0-1.43,4c-.24.85-.72,1.27-1.44,1.27l-.18,0-.18,0-1.74-.29a17.23,17.23,0,0,1,1.79-5.84,14.52,14.52,0,0,1,3.41-4.33,14.21,14.21,0,0,1,4.76-2.69A17.93,17.93,0,0,1,791.21,607.94Z" transform="translate(-338.61 -63)"/>
      <path class="cls-1" d="M850.57,634a41.55,41.55,0,0,1-1.44,11.62,24.59,24.59,0,0,1-3.94,8.12,16,16,0,0,1-5.83,4.78,16.91,16.91,0,0,1-14.23,0,16.05,16.05,0,0,1-5.81-4.78,24.19,24.19,0,0,1-3.92-8.12,48.25,48.25,0,0,1,0-23.24,24.1,24.1,0,0,1,3.92-8.12,16,16,0,0,1,5.81-4.78,16.91,16.91,0,0,1,14.23,0,15.85,15.85,0,0,1,5.83,4.78,24.5,24.5,0,0,1,3.94,8.12A41.5,41.5,0,0,1,850.57,634ZM847,634a41.22,41.22,0,0,0-1.19-10.61,22.26,22.26,0,0,0-3.19-7.2,12.46,12.46,0,0,0-4.7-4.1,12.86,12.86,0,0,0-11.27,0,12.59,12.59,0,0,0-4.69,4.1,21.84,21.84,0,0,0-3.21,7.2,47.55,47.55,0,0,0,0,21.23,22,22,0,0,0,3.21,7.19,12.41,12.41,0,0,0,4.69,4.07,13,13,0,0,0,11.27,0,12.29,12.29,0,0,0,4.7-4.07,22.39,22.39,0,0,0,3.19-7.19A41.14,41.14,0,0,0,847,634Z" transform="translate(-338.61 -63)"/>
    </g>
    <rect class="cls-3" x="478.12" width="70.91" height="70.91"/>
  </g>
</svg>
